<svg xmlns="http://www.w3.org/2000/svg" width="300" height="300" viewBox="0 0 300 300">
  <defs>
    <style>
      .cls-1, .cls-2 {
        fill: #4800ff;
        fill-rule: evenodd;
      }

      .cls-2 {
        opacity: 0.1;
      }
    </style>
  </defs>
  <path id="Logo_kopia" data-name="Logo kopia" class="cls-1" d="M136.85,174.349a23.007,23.007,0,0,0-7.911-5.713,25.743,25.743,0,0,0-10.722-2.162q-10.371,0-16.91,7.172t-6.539,18.317v1.722q0,11.18,6.574,18.317a21.91,21.91,0,0,0,16.875,7.136,26.228,26.228,0,0,0,10.74-2.127,22.006,22.006,0,0,0,7.893-5.713V201.173h-7.629l-1.055,6.821a9.229,9.229,0,0,1-3.885,2.39,16.651,16.651,0,0,1-5.537.879,11.822,11.822,0,0,1-10.125-4.886q-3.585-4.887-3.586-12.692v-1.793q0-7.8,3.6-12.656t10.283-4.852a15.238,15.238,0,0,1,5.432.879,10.71,10.71,0,0,1,3.814,2.391l1.055,6.82h7.629V174.349ZM155.961,218.4h20.918v-6.152l-5.2-1.055V197.025h5.731l9.844,14.8-3.164.422V218.4h20.285v-6.152l-5.133-.879-14.133-20.215,12.586-16.805,5.555-.949v-6.187H182.961V173.4l3.023,0.422L176.14,188.13h-4.465V174.455l5.2-1.055v-6.187H155.961V173.4l5.449,1.055v36.738l-5.449,1.055V218.4Zm-18.6-86.4V117.691h-7.839l-0.493,6.434H114.576V88.055L120.061,87V80.813h-21.2V87l5.45,1.055v36.738l-5.45,1.055V132h38.5ZM65,50H50V250H65V240H60V60h5V50Zm170,0h15V250H235V240h5V60h-5V50Zm-40.071,75.391q-6.434,7.347-16.84,7.347-10.371,0-16.751-7.347t-6.381-18.6V106.02q0-11.18,6.363-18.563a20.409,20.409,0,0,1,11.991-6.949V73.055L167.861,72V68.813h5.45V68.055L167.861,67V63.813h15.715V80.678a20.7,20.7,0,0,1,11.336,6.779q6.45,7.383,6.451,18.563v0.773Q201.363,118.043,194.929,125.391Zm-3.8-19.442q0-7.944-3.3-12.9t-9.774-4.957q-6.468,0-9.65,4.922t-3.182,12.937v0.844q0,8.086,3.217,13.025t9.65,4.94q6.5,0,9.774-4.94t3.269-13.025v-0.844Z"/>
  <path id="_10" data-name="10" class="cls-2" d="M75,50H40V250H75V240H70V60h5V50Zm150,0h35V250H225V240h5V60h-5V50Z"/>
  <path id="_10-2" data-name="10" class="cls-2" d="M70,50H45V250H70V240H65V60h5V50Zm160,0h25V250H230V240h5V60h-5V50Z"/>
</svg>
