<svg xmlns="http://www.w3.org/2000/svg" width="300" height="300" viewBox="0 0 300 300">
  <defs>
    <style>
      .cls-1 {
        fill: #05f;
        fill-rule: evenodd;
      }
    </style>
  </defs>
  <path id="eda" class="cls-1" d="M262.744,138.89c-7.66,14.683-14.608,22.756-21.755,24.671-7.341,1.967-14.317-3.2-16.8-12.476-5.205,10.712-16.108,28.748-25.96,31.388-5.216,1.4-10.591-.889-12.351-7.457a25.324,25.324,0,0,1-.759-7.211c-4.909,7.493-12.583,17-21.064,19.27-7.534,2.019-14.275-.73-17.16-10.724-9.413,14.324-18.792,24.913-25.94,26.828-6.568,1.76-13.568-1.955-15.587-9.489a25.744,25.744,0,0,1-.826-5.728c-5.923,9.5-17.455,24.706-32.553,28.751-10.046,2.692-20.2-1.212-23.152-12.224-4.814-17.966,13.913-43.9,28.594-47.83,5.989-1.6,10.591.889,11.885,5.719,3.054,11.4-20.513,29.307-35.705,37.519a24.181,24.181,0,0,0,.79,3.722c1.967,7.341,8.477,10.773,16.4,8.651,21.067-5.645,33.874-32.017,34.743-33.854,3.752-16.284,17.154-33.264,28.648-36.344,5.988-1.6,9.752.078,11.519,1.262,2.619-28.861,11.879-63.85,27.14-67.939,4.83-1.294,9.328.813,10.933,6.8,3.468,12.943-13.794,56.7-32.965,87.927a29.543,29.543,0,0,0,.842,3.915c2.329,8.694,7.535,9.576,11.592,8.489,11.966-3.206,21.588-21.176,23.646-25.274,5.055-17.262,20.063-36.13,35.409-40.242,9.08-2.433,14.431,1.31,15.725,6.139,0.931,3.477-.662,6.8-1.821,7.114a1.061,1.061,0,0,1-1.47-.849c-0.259-.966.062-2.087-0.455-4.019-0.725-2.7-3.306-6.154-9.1-4.6-21.25,5.694-38.334,36.981-34.09,52.822,1.087,4.057,3.433,5.085,6.524,4.257,8.114-2.174,17.8-17.813,22.1-27.248,3.56-7.58,5.626-14.552,7.364-15.018a2.644,2.644,0,0,1,3.185,1.839c0.31,1.159-2.311,6.83-.5,13.592,1.915,7.147,6.079,9.552,11.1,8.206,5.409-1.45,11.456-8.246,18.5-22.142a3.418,3.418,0,0,1,1.428-1.625,1.845,1.845,0,0,1,2.4,1.221A4.454,4.454,0,0,1,262.744,138.89ZM84.523,163.041c-0.466-1.739-2.477-3.063-5.182-2.339-11.2,3-23.874,19.856-25.57,34.39C67.521,187.68,86.9,171.927,84.523,163.041Zm60.97-15.095c-1.677-1.621-4.423-3.37-9.445-2.024-13.137,3.52-29.956,30.388-25.5,47a7.615,7.615,0,0,0,9.605,5.708c6.761-1.812,16.178-13.031,25.629-27.987A118.411,118.411,0,0,1,145.493,147.946ZM179.233,83c-0.724-2.7-3.07-3.732-5.582-3.059-15.648,4.193-24.423,56.443-23.437,83.3C167.184,133.852,182.494,95.172,179.233,83Z"/>
</svg>
