<svg xmlns="http://www.w3.org/2000/svg" width="300" height="100" viewBox="0 0 300 100">
  <defs>
    <style>
      .cls-1 {
        fill: #4800ff;
        fill-rule: evenodd;
      }
    </style>
  </defs>
  <path id="insurea_kopia" data-name="insurea kopia" class="cls-1" d="M166.537,53.887a8.338,8.338,0,0,0-2-5.976,7.387,7.387,0,0,0-5.625-2.109,7.468,7.468,0,0,0-5.431,1.863,6.968,6.968,0,0,0-1.916,5.238V76h-7.172V39.508h7.172v5.079a12.483,12.483,0,0,1,3.673-3.813,10.736,10.736,0,0,1,6.03-1.793q5.94,0,9.193,3.885t3.252,10.986V76h-7.172V53.887ZM126.318,39.508h7.172V76h-7.172V39.508Zm0-14.625H173.49v7.172H126.318V24.883Z"/>
</svg>
